<svg xmlns="http://www.w3.org/2000/svg" width="33" height="46" viewBox="0 0 33 46" fill="none">
  <path
    d="M6.33209 4.42827L6.17202 4.23623L6.33208 4.42827C2.69506 7.45972 0.60955 11.9107 0.60955 16.6409C0.60955 21.4475 2.75711 25.943 6.50301 28.9758L6.34569 29.1701L6.50301 28.9758C8.3554 30.4757 9.41391 32.7563 9.41391 35.2274V35.2278V35.2281L9.41391 38.163C9.41391 40.4524 11.2769 42.3152 13.5662 42.3152H15.0336H15.2836V42.5652V44.0327C15.2836 44.705 15.8286 45.2501 16.501 45.2501C17.1734 45.2501 17.7184 44.705 17.7184 44.0327V42.5652V42.3152H17.9684L19.4359 42.3152C21.7252 42.3152 23.5881 40.4523 23.5881 38.163V35.2281C23.5881 32.7523 24.6383 30.4772 26.478 28.9928L26.635 29.1873L26.478 28.9928C31.002 25.3426 33.1433 19.6204 32.1521 13.8404C30.073 1.71676 15.5727 -3.27386 6.33209 4.42827ZM20.9033 36.4455H21.1533V36.6955V38.1629C21.1533 39.1101 20.3831 39.8803 19.4359 39.8803L13.5662 39.8803C12.619 39.8803 11.8488 39.1101 11.8488 38.1629L11.8488 36.6955V36.4455H12.0988L20.9033 36.4455ZM17.9684 21.293H17.7184V21.043V19.5756C17.7184 17.0101 19.8053 14.9233 22.3707 14.9233H23.8381H24.0881V15.1733V16.6408C24.0881 19.2063 22.0013 21.293 19.4359 21.293H17.9684ZM8.03496 27.0835L8.19227 26.8892L8.03495 27.0835C4.86381 24.5158 3.04431 20.7092 3.04422 16.6409C3.04422 12.6357 4.81106 8.86576 7.89097 6.29868L8.05103 6.49072L7.89097 6.29868C15.6961 -0.206766 27.9895 3.9721 29.7524 14.2519L29.506 14.2942L29.7524 14.2519C30.5981 19.1835 28.803 23.9884 24.9492 27.0978C22.9014 28.75 21.5936 31.1358 21.2462 33.793L21.2177 34.0106H20.9983L17.9684 34.0106H17.7184V33.7606V23.9779V23.7279H17.9684H19.4359C23.3435 23.7279 26.523 20.5484 26.523 16.6408V13.7059C26.523 13.0336 25.9779 12.4885 25.3055 12.4885H22.3707C20.0554 12.4885 17.9956 13.6047 16.7009 15.3286L16.501 15.5947L16.3011 15.3286C15.0065 13.6047 12.9467 12.4885 10.6313 12.4885H7.69648C7.02411 12.4885 6.47906 13.0336 6.47906 13.7059V16.6408C6.47906 20.5484 9.65855 23.7279 13.5662 23.7279H15.0336H15.2836V23.9779V33.7607V34.0107H15.0336H12.0029H11.7837L11.7551 33.7933C11.4058 31.14 10.0922 28.7491 8.03496 27.0835ZM15.2836 21.043V21.293H15.0336H13.5662C11.0006 21.293 8.91391 19.2062 8.91391 16.6408V15.1733V14.9233H9.16391H10.6313C13.1969 14.9233 15.2836 17.0102 15.2836 19.5756V21.043Z"
    fill="#79043C" stroke="#FBEFF2" stroke-width="0.5" />
</svg>