<svg xmlns="http://www.w3.org/2000/svg" width="31" height="32" viewBox="0 0 31 32" fill="none">
  <path
    d="M1.10352 30.2857L20.6795 10.7096M10.1738 21.2154L10.511 20.9432C10.8382 20.6595 11.1345 20.3414 11.3949 19.9943C13.4181 17.2967 12.8714 13.4698 10.1738 11.4466L9.83659 11.7187C9.50943 12.0025 9.21309 12.3205 8.95275 12.6676C6.92954 15.3652 7.47624 19.1922 10.1738 21.2154ZM10.1738 21.2154L10.446 21.5526C10.7298 21.8798 11.0478 22.1761 11.3949 22.4365C14.0925 24.4596 17.9194 23.9129 19.9425 21.2154L19.6704 20.8781C19.3866 20.551 19.0685 20.2546 18.7214 19.9942C16.0239 17.9711 12.197 18.5178 10.1738 21.2154ZM15.0582 16.331L15.3954 16.0588C15.7226 15.775 16.0189 15.457 16.2792 15.1099C18.3025 12.4123 17.7558 8.58536 15.0582 6.56216L14.7209 6.83431C14.3938 7.11807 14.0974 7.43611 13.8371 7.78323C11.8139 10.4808 12.3606 14.3078 15.0582 16.331ZM15.0582 16.331L15.3303 16.6682C15.6141 16.9954 15.9322 17.2917 16.2793 17.5521C18.9769 19.5752 22.8037 19.0285 24.8269 16.331L24.5547 15.9937C24.271 15.6665 23.9529 15.3702 23.6058 15.1098C20.9082 13.0867 17.0813 13.6334 15.0582 16.331ZM19.9425 11.4466L20.2798 11.1744C20.6069 10.8906 20.9033 10.5726 21.1636 10.2255C23.1868 7.52791 22.6401 3.70096 19.9425 1.67775L19.6053 1.9499C19.2782 2.23367 18.9818 2.55171 18.7215 2.89882C16.6983 5.5964 17.245 9.42336 19.9425 11.4466ZM19.9425 11.4466L20.2147 11.7838C20.4985 12.111 20.8165 12.4073 21.1637 12.6677C23.8612 14.6908 27.6881 14.1441 29.7113 11.4466L29.4391 11.1093C29.1553 10.7821 28.8373 10.4858 28.4901 10.2254C25.7926 8.20229 21.9657 8.749 19.9425 11.4466ZM5.17382 26.2154L5.51105 25.9432C5.8382 25.6595 6.13455 25.3414 6.39489 24.9943C8.41809 22.2967 7.8714 18.4698 5.17382 16.4466L4.83659 16.7187C4.50943 17.0025 4.21308 17.3205 3.95275 17.6676C1.92954 20.3652 2.47623 24.1922 5.17382 26.2154ZM5.17382 26.2154L5.44597 26.5526C5.72975 26.8798 6.04781 27.1761 6.39494 27.4365C9.0925 29.4596 12.9194 28.9129 14.9425 26.2154L14.6704 25.8781C14.3866 25.551 14.0685 25.2546 13.7214 24.9942C11.0239 22.9711 7.19697 23.5178 5.17382 26.2154ZM29.8906 1.4996C30.3675 4.83772 28.048 7.93033 24.7099 8.40719C24.2804 8.46855 23.846 8.48389 23.414 8.45321L22.983 8.40712C22.5062 5.06906 24.8256 1.97646 28.1637 1.49959C28.7364 1.41778 29.3179 1.41778 29.8906 1.4996Z"
    stroke="#79043C" stroke-width="1.66667" stroke-linecap="round" />
</svg>