<svg xmlns="http://www.w3.org/2000/svg" width="30" height="37" viewBox="0 0 30 37" fill="none">
  <path
    d="M13.0516 35.649C12.4827 35.1596 11.9219 34.6862 11.4812 34.0924C10.5679 32.8809 10.3756 31.5249 10.656 30.0646C10.9765 28.4197 11.6815 26.9273 12.3626 25.4189C13.1477 23.6778 13.981 21.9527 14.3255 20.0591C14.5979 18.5908 14.5258 17.1626 13.8367 15.7986C13.8047 15.7264 13.7967 15.6381 13.6605 15.6141C13.7646 16.0955 13.8928 16.5689 13.973 17.0423C14.1893 18.326 13.9409 19.5697 13.5804 20.7973C13.0275 22.6909 12.1382 24.44 11.353 26.2453C10.8082 27.497 10.2875 28.7487 10.0872 30.1127C10.015 30.6022 10.0231 31.0996 10.0391 31.5891C10.0391 31.7014 10.1192 31.8538 9.99903 31.918C9.87885 31.9822 9.7827 31.8458 9.69457 31.7736C7.93194 30.4497 6.63401 28.7647 5.88088 26.6866C4.615 23.1803 4.92746 19.7863 6.92244 16.6331C8.02809 14.8839 9.59843 13.56 11.4171 12.5651C12.9795 11.7146 14.67 11.2813 16.4406 11.2813C18.4356 11.2813 20.3184 11.7868 22.065 12.7577C24.4526 14.0816 26.2953 15.9511 27.4731 18.4303C28.8752 21.367 28.9954 24.3678 27.8016 27.4007C26.5998 30.4337 24.4285 32.6803 21.8567 34.5819C21.5442 34.8145 21.2478 35.0713 20.9353 35.32C20.9273 35.3281 20.9353 35.3441 20.9434 35.3602C25.6864 33.948 30.3654 28.6283 29.9247 21.9126C29.3879 13.7686 22.2974 8.48108 15.0546 9.29146C7.1628 10.1741 2.22744 17.2348 3.10875 24.2876C3.59748 28.179 5.44824 31.2842 8.58091 33.611C9.92692 34.6059 11.4011 35.3361 13.0516 35.649Z"
    fill="#A10550" />
  <path
    d="M22.4493 19.9867C22.2089 20.059 21.9686 20.1633 21.7282 20.2114C21.3436 20.2756 21.2715 20.1793 21.3036 19.7861C21.4398 17.9166 21.1754 16.1354 20.1338 14.5307C19.7813 13.9851 19.3086 13.5679 18.6116 13.3271C18.8599 14.0493 19.1083 14.7072 19.2605 15.3892C19.7412 17.5556 19.4608 19.6337 18.5715 21.6476C17.8264 23.3406 16.8089 24.8811 15.9276 26.5019C14.9741 28.2591 14.2531 30.0804 14.3091 32.1345C14.3252 32.7603 14.3973 33.3862 14.5575 33.9959C14.5735 34.0682 14.6617 34.1484 14.5495 34.1885C14.4534 34.2286 14.4133 34.1324 14.3812 34.0601C14.1088 33.4824 13.9646 32.8726 13.9005 32.2468C13.6682 29.936 14.3252 27.8338 15.4549 25.852C15.5189 25.7397 15.583 25.6273 15.6552 25.4909C15.1985 25.6915 14.8219 26.0285 14.3732 26.7506C13.0913 28.8207 12.5065 31.0593 12.867 33.4824C13.1714 35.5285 14.6456 36.8363 16.7047 36.9807C17.1053 37.0128 17.5059 36.9968 17.9065 36.9888C18.0107 36.9888 18.1228 37.0128 18.1709 36.8925C16.3442 36.1944 15.3667 34.8224 15.1664 32.9208C15.0062 31.4364 15.8715 30.5137 17.3617 30.3934C17.9786 30.3452 18.5875 30.3934 19.1884 30.5378C19.7172 30.6581 20.246 30.6902 20.7668 30.4977C21.4718 30.2329 21.7202 29.7354 21.5359 29.0053C21.4718 28.7565 21.3837 28.5239 21.3276 28.2751C21.2235 27.8178 21.3597 27.5931 21.8083 27.4808C22.3051 27.3524 22.3131 27.3524 22.0166 26.9673C21.8804 26.7908 21.8884 26.6784 22.1208 26.6303C22.5374 26.542 22.5214 26.3174 22.3451 26.0125C22.273 25.8841 22.2089 25.7557 22.1528 25.6193C21.9445 25.0577 21.9846 24.9213 22.4813 24.5843C22.5935 24.5121 22.6977 24.4318 22.8018 24.3436C23.1623 24.0146 23.1704 23.7257 22.7938 23.4048C22.5615 23.2042 22.3051 23.0277 22.0327 22.8913C21.5199 22.6345 21.3116 22.2093 21.2635 21.6637C21.2555 21.5674 21.2475 21.4791 21.2395 21.3828C21.2395 21.1261 21.1754 20.8533 21.2475 20.6286C21.3436 20.3318 21.6962 20.5163 21.9125 20.42C22.1288 20.3237 22.3612 20.2515 22.5134 20.0429C22.4974 20.0349 22.4733 20.0108 22.4493 19.9867Z"
    fill="#A10550" />
  <path
    d="M6.60225 5.59241C7.7079 5.92941 8.61324 6.55525 9.27022 7.51808C9.30227 7.56622 9.36637 7.60634 9.41444 7.64646C9.08595 6.30652 8.5812 5.0789 7.25923 4.40492C6.59424 4.06793 5.8972 4.18828 5.21618 4.29259C4.47908 4.41294 3.78204 4.30864 3.10904 4.00374C3.06096 3.97967 3.01289 3.97967 2.95681 3.96362C2.9488 3.96362 2.93277 3.97165 2.8847 3.99572C3.06096 4.89436 3.47758 5.6887 4.06246 6.38675C5.05594 7.57424 6.32984 8.26427 7.85211 8.52103C8.39692 8.60929 8.90969 8.78581 9.43848 9.13885C9.27023 8.28032 8.94975 7.59832 8.42096 7.01259C7.9082 6.44292 7.27525 6.05778 6.60225 5.72079C6.3699 5.64858 6.12954 5.57637 5.86515 5.39985C6.1696 5.42392 6.39394 5.47206 6.60225 5.59241ZM5.70491 5.36775C5.72894 5.36775 5.74497 5.36775 5.769 5.35973C5.76099 5.36775 5.75298 5.37578 5.73696 5.37578C5.72093 5.3838 5.71292 5.36775 5.70491 5.36775Z"
    fill="#A10550" />
  <path
    d="M7.8924 9.86899C7.05114 9.37955 6.16983 9.01046 5.21641 8.87406C4.32708 8.74569 3.62203 9.06663 3.10125 9.79678C2.98107 9.95725 2.8689 10.1257 2.75674 10.2862C2.32409 10.9442 1.83536 11.5299 0.954049 11.7866C2.68463 12.7093 4.35112 13.271 6.17784 12.3082C7.08319 11.8348 7.8924 11.1849 8.99805 10.9201C7.46776 10.0455 5.99357 10.0054 4.45527 10.551C5.48881 9.74864 6.68259 9.78875 7.8924 9.86899Z"
    fill="#A10550" />
  <path
    d="M10.6561 -2.07429e-07C9.43027 1.87752 8.93353 3.74702 9.94303 5.80909C10.2555 6.44295 10.592 7.06879 10.4959 7.83906C11.0407 7.32555 11.4092 6.71576 11.6416 6.0177C11.8739 5.29558 11.7537 4.58148 11.6896 3.85935C12.2344 4.91847 12.2505 6.00165 11.8018 7.15705C13.4202 5.26348 13.3721 3.67481 12.0422 2.18242C11.7617 1.86148 11.4733 1.54855 11.2089 1.21156C10.9445 0.874572 10.7522 0.505487 10.6561 -2.07429e-07Z"
    fill="#A10550" />
  <path
    d="M15.9119 7.02868C15.311 7.83907 14.4858 8.32851 13.5003 8.6334C14.9585 9.16296 16.5528 8.75376 17.1617 7.22125C17.354 6.73181 17.4582 6.22632 17.5383 5.71281C17.6665 4.91045 17.7626 4.70986 18.2354 4.05193C17.6024 4.01181 17.0255 4.14019 16.4567 4.26054C15.2469 4.5173 14.3656 5.20733 13.7807 6.29854C13.4282 6.96449 13.0035 7.56627 12.2344 7.98349C13.324 8.19211 14.2374 8.01559 15.0867 7.44591C15.4071 7.22927 15.6715 6.94042 15.96 6.68367C16.0401 6.49913 16.1522 6.33865 16.3606 6.25039C16.2484 6.53924 16.1603 6.82809 15.9119 7.02868Z"
    fill="#A10550" />
  <path
    d="M15.9117 7.02881C16.1601 6.82822 16.2482 6.53937 16.3604 6.25854C16.152 6.33878 16.0399 6.49925 15.9598 6.69182C15.9437 6.80415 15.9277 6.91648 15.9117 7.02881Z"
    fill="#A10550" />
  <path
    d="M6.60205 5.59254C6.39374 5.47218 6.17742 5.42404 5.86495 5.41602C6.12934 5.60056 6.3697 5.67277 6.60205 5.73696C6.60205 5.68079 6.60205 5.64068 6.60205 5.59254Z"
    fill="#A10550" />
  <path
    d="M22.5214 20.059C22.5455 20.0269 22.5775 19.9868 22.6016 19.9547C22.5375 19.9146 22.4894 19.9307 22.4493 19.9949C22.4734 20.0109 22.4974 20.035 22.5214 20.059Z"
    fill="#A10550" />
  <path d="M9.40486 7.64648L9.42969 7.67131L9.40486 7.65476L9.40486 7.64648Z" fill="#A10550" />
  <path
    d="M5.70446 5.36794C5.71247 5.37621 5.7285 5.38449 5.73651 5.38449C5.74452 5.38449 5.76054 5.37621 5.76855 5.36794C5.74452 5.35966 5.72048 5.36794 5.70446 5.36794Z"
    fill="#A10550" />
</svg>