<svg xmlns="http://www.w3.org/2000/svg" width="120" height="18" viewBox="0 0 120 18" fill="none">
  <path
    d="M7.19049 0C8.64188 0 9.7202 0.0600997 10.4254 0.1803C10.7627 0.2404 11.0898 0.33055 11.4067 0.450751C11.7235 0.570951 12.0199 0.721202 12.2959 0.901502C12.8581 1.2621 13.3231 1.75292 13.6911 2.37396C14.059 2.98497 14.243 3.67112 14.243 4.43239C14.243 4.85309 14.1817 5.25877 14.059 5.64942C13.9364 6.04007 13.7626 6.40568 13.5378 6.74624C13.3231 7.0768 13.0574 7.3773 12.7405 7.64775C12.4237 7.90818 12.071 8.12354 11.6826 8.29382C12.7967 8.61436 13.6451 9.14524 14.2277 9.88648C14.8205 10.6277 15.1169 11.5142 15.1169 12.5459C15.0965 13.1669 14.9789 13.773 14.7643 14.3639C14.5599 14.9449 14.2583 15.4658 13.8597 15.9265C13.4713 16.3873 12.996 16.7679 12.4339 17.0684C11.8819 17.3689 11.2482 17.5392 10.5328 17.5793C10.2261 17.6094 9.70487 17.6344 8.96895 17.6544C8.24326 17.6644 7.29782 17.6795 6.13262 17.6995H0V0H7.19049ZM3.66424 7.04674H6.04063C6.76632 7.04674 7.3387 7.04174 7.75776 7.03172C8.18704 7.0217 8.48856 7.00167 8.66232 6.97162C9.30625 6.91152 9.80708 6.71119 10.1648 6.37062C10.5225 6.02003 10.7014 5.55426 10.7014 4.97329C10.7014 4.43239 10.543 3.98664 10.2261 3.63606C9.91951 3.28548 9.46467 3.08013 8.86163 3.02003C8.66743 2.98998 8.31481 2.96494 7.80376 2.94491C7.30293 2.92488 6.61812 2.91486 5.74933 2.91486H3.66424V7.04674ZM3.66424 14.7095H7.03718C7.6811 14.7095 8.20749 14.7045 8.61633 14.6945C9.03539 14.6745 9.34202 14.6394 9.53622 14.5893C10.0677 14.4992 10.5021 14.2738 10.8394 13.9132C11.1767 13.5426 11.3453 13.0467 11.3453 12.4257C11.3453 11.3038 10.8292 10.5676 9.79686 10.217C9.55155 10.1369 9.16315 10.0768 8.63166 10.0367C8.10017 9.99666 7.41536 9.97663 6.57723 9.97663H3.66424V14.7095Z"
    fill="#A10550" />
  <path d="M18.2139 0H31.5983V2.98998H21.8474V6.91152H30.9237V9.93155H21.8474V14.7095H31.9203V17.6995H18.2139V0Z"
    fill="#A10550" />
  <path
    d="M47.3438 17.6995L45.78 13.6578H38.5435L37.041 17.6995H33.1928L40.2453 0H44.0782L51.3147 17.6995H47.3438ZM42.1157 4.11686L39.678 10.7129H44.6148L42.1157 4.11686Z"
    fill="#A10550" />
  <path
    d="M56.8494 0V9.58598C56.8494 10.3372 56.8647 10.9633 56.8954 11.4641C56.926 11.9549 56.9669 12.3155 57.018 12.5459C57.1611 13.2571 57.5239 13.8381 58.1065 14.2888C58.6994 14.7396 59.5017 14.9649 60.5136 14.9649C61.0349 14.9649 61.4897 14.9099 61.8781 14.7997C62.2665 14.6795 62.5936 14.5242 62.8593 14.3339C63.1251 14.1336 63.3346 13.9032 63.4879 13.6427C63.6412 13.3823 63.7434 13.1068 63.7946 12.8164C63.8661 12.4958 63.9121 12.0902 63.9325 11.5993C63.953 11.0985 63.9632 10.4975 63.9632 9.79633V0H67.6121V9.28548C67.6121 10.3673 67.5917 11.2788 67.5508 12.02C67.5099 12.7613 67.4332 13.3573 67.3208 13.808C67.1368 14.6995 66.7638 15.4407 66.2016 16.0317C65.9563 16.3322 65.6599 16.6027 65.3124 16.8431C64.9751 17.0835 64.5765 17.2888 64.1165 17.4591C63.6668 17.6294 63.1506 17.7596 62.568 17.8498C61.9956 17.9499 61.3517 18 60.6362 18C59.7675 18 59.006 17.9499 58.3519 17.8498C57.7079 17.7496 57.156 17.6093 56.696 17.429C56.2463 17.2287 55.8477 17.0033 55.5002 16.7529C55.1629 16.4925 54.8563 16.202 54.5803 15.8815C54.3248 15.581 54.1152 15.2654 53.9517 14.9349C53.7882 14.5943 53.6655 14.2588 53.5837 13.9282C53.4611 13.4174 53.3691 12.7913 53.3078 12.0501C53.2567 11.3088 53.2311 10.4374 53.2311 9.43573V0H56.8494Z"
    fill="#A10550" />
  <path d="M75.5232 2.98998H70.1418V0H84.5075V2.98998H79.1568V17.6995H75.5232V2.98998Z" fill="#A10550" />
  <path
    d="M91.6213 10.2471L85.0134 0H89.2909L93.5378 7.00167L97.6926 0H101.909L95.2549 10.2771V17.6995H91.6213V10.2471Z"
    fill="#A10550" />
  <path
    d="M116.029 17.6995L114.465 13.6578H107.229L105.726 17.6995H101.878L108.931 0H112.764L120 17.6995H116.029ZM110.801 4.11686L108.363 10.7129H113.3L110.801 4.11686Z"
    fill="#A10550" />
</svg>