<svg xmlns="http://www.w3.org/2000/svg" width="80" height="39" viewBox="0 0 80 39" fill="none">
  <path
    d="M38.4933 22.1603C38.1397 21.8561 37.7911 21.5618 37.5172 21.1927C36.9494 20.4396 36.8299 19.5967 37.0042 18.6889C37.2034 17.6665 37.6417 16.7388 38.065 15.8011C38.5531 14.7188 39.0711 13.6464 39.2852 12.4693C39.4546 11.5566 39.4097 10.6688 38.9814 9.82089C38.9615 9.776 38.9565 9.72114 38.8718 9.70618C38.9366 10.0054 39.0163 10.2997 39.0661 10.594C39.2006 11.392 39.0462 12.1651 38.822 12.9282C38.4784 14.1053 37.9256 15.1926 37.4375 16.3148C37.0988 17.0929 36.7751 17.8709 36.6506 18.7188C36.6058 19.0231 36.6107 19.3323 36.6207 19.6366C36.6207 19.7064 36.6705 19.8012 36.5958 19.8411C36.5211 19.881 36.4613 19.7962 36.4065 19.7513C35.3109 18.9283 34.504 17.8809 34.0359 16.5891C33.249 14.4095 33.4432 12.2998 34.6833 10.3396C35.3706 9.2523 36.3468 8.42934 37.4773 7.81087C38.4485 7.28218 39.4994 7.01285 40.6 7.01285C41.8402 7.01285 43.0106 7.32707 44.0963 7.93058C45.5804 8.75354 46.7259 9.91566 47.4581 11.4568C48.3296 13.2823 48.4043 15.1477 47.6623 17.033C46.9152 18.9184 45.5655 20.3149 43.9668 21.497C43.7726 21.6416 43.5883 21.8012 43.394 21.9558C43.3891 21.9608 43.394 21.9708 43.399 21.9808C46.3474 21.1029 49.256 17.7961 48.9821 13.6215C48.6484 8.55902 44.2407 5.27216 39.7384 5.77591C34.8327 6.32455 31.7648 10.7137 32.3127 15.0978C32.6165 17.5168 33.7669 19.447 35.7143 20.8935C36.551 21.5119 37.4674 21.9658 38.4933 22.1603Z"
    fill="#A10550" />
  <path
    d="M44.3347 12.4242C44.1853 12.4691 44.0358 12.5339 43.8864 12.5638C43.6474 12.6037 43.6026 12.5439 43.6225 12.2995C43.7071 11.1374 43.5428 10.0301 42.8953 9.03257C42.6762 8.69341 42.3824 8.43405 41.9491 8.28442C42.1035 8.73331 42.2578 9.1423 42.3525 9.56625C42.6513 10.9129 42.477 12.2047 41.9242 13.4566C41.461 14.509 40.8285 15.4666 40.2806 16.4741C39.688 17.5664 39.2397 18.6986 39.2746 19.9755C39.2845 20.3645 39.3294 20.7535 39.429 21.1326C39.4389 21.1775 39.4937 21.2274 39.424 21.2523C39.3642 21.2772 39.3393 21.2174 39.3194 21.1725C39.1501 20.8134 39.0604 20.4343 39.0206 20.0453C38.8762 18.6088 39.2845 17.3021 39.9868 16.0701C40.0266 16.0003 40.0665 15.9305 40.1113 15.8457C39.8274 15.9704 39.5933 16.1799 39.3144 16.6288C38.5176 17.9156 38.154 19.3071 38.3781 20.8134C38.5674 22.0852 39.4838 22.8982 40.7637 22.988C41.0127 23.0079 41.2618 22.998 41.5108 22.993C41.5755 22.993 41.6453 23.0079 41.6751 22.9331C40.5396 22.4992 39.932 21.6463 39.8075 20.4643C39.7079 19.5415 40.2458 18.968 41.1721 18.8931C41.5556 18.8632 41.9341 18.8931 42.3076 18.9829C42.6364 19.0577 42.9651 19.0777 43.2888 18.958C43.7271 18.7934 43.8815 18.4842 43.7669 18.0303C43.7271 17.8757 43.6723 17.731 43.6374 17.5764C43.5727 17.2921 43.6573 17.1525 43.9362 17.0826C44.245 17.0028 44.25 17.0028 44.0657 16.7634C43.9811 16.6537 43.986 16.5839 44.1305 16.5539C44.3895 16.4991 44.3795 16.3594 44.2699 16.1699C44.2251 16.0901 44.1853 16.0103 44.1504 15.9255C44.0209 15.5764 44.0458 15.4916 44.3546 15.2821C44.4243 15.2372 44.4891 15.1873 44.5538 15.1325C44.7779 14.928 44.7829 14.7484 44.5488 14.5489C44.4044 14.4242 44.245 14.3145 44.0757 14.2297C43.7569 14.0701 43.6275 13.8057 43.5976 13.4666C43.5926 13.4067 43.5876 13.3519 43.5826 13.292C43.5826 13.1324 43.5428 12.9628 43.5876 12.8232C43.6474 12.6386 43.8665 12.7534 44.001 12.6935C44.1355 12.6336 44.2799 12.5888 44.3745 12.4591C44.3646 12.4541 44.3496 12.4391 44.3347 12.4242Z"
    fill="#A10550" />
  <path
    d="M34.484 3.47636C35.1713 3.68584 35.7341 4.07488 36.1425 4.67339C36.1624 4.70332 36.2022 4.72826 36.2321 4.7532C36.0279 3.92026 35.7142 3.15715 34.8924 2.73819C34.479 2.52871 34.0457 2.60352 33.6224 2.66836C33.1642 2.74317 32.7309 2.67834 32.3126 2.48881C32.2827 2.47384 32.2528 2.47384 32.2179 2.46387C32.2129 2.46387 32.203 2.46885 32.1731 2.48382C32.2827 3.04243 32.5417 3.53621 32.9052 3.97014C33.5228 4.70831 34.3147 5.13724 35.261 5.29685C35.5996 5.35171 35.9184 5.46144 36.2471 5.6809C36.1425 5.14722 35.9433 4.72327 35.6146 4.35917C35.2958 4.00505 34.9024 3.76564 34.484 3.55616C34.3396 3.51127 34.1902 3.46638 34.0258 3.35666C34.2151 3.37162 34.3545 3.40154 34.484 3.47636ZM33.9262 3.3367C33.9411 3.3367 33.9511 3.3367 33.966 3.33172C33.9611 3.3367 33.9561 3.34169 33.9461 3.34169C33.9362 3.34668 33.9312 3.3367 33.9262 3.3367Z"
    fill="#A10550" />
  <path
    d="M35.2858 6.13466C34.7629 5.83042 34.2151 5.60099 33.6224 5.5162C33.0696 5.43639 32.6313 5.6359 32.3076 6.08978C32.2329 6.18953 32.1631 6.29427 32.0934 6.39402C31.8245 6.80301 31.5207 7.16711 30.9728 7.32671C32.0486 7.90029 33.0845 8.24943 34.22 7.65091C34.7828 7.35664 35.2858 6.95264 35.9731 6.78805C35.0219 6.24439 34.1055 6.21945 33.1493 6.55861C33.7917 6.05985 34.5338 6.08479 35.2858 6.13466Z"
    fill="#A10550" />
  <path
    d="M37.0041 -1.28942e-07C36.2421 1.16711 35.9333 2.32923 36.5608 3.61105C36.7551 4.00508 36.9642 4.39411 36.9045 4.87293C37.2431 4.55372 37.4722 4.17466 37.6167 3.74073C37.7611 3.29185 37.6864 2.84794 37.6465 2.39906C37.9852 3.05743 37.9952 3.73076 37.7163 4.44898C38.7223 3.27189 38.6924 2.28434 37.8657 1.35664C37.6914 1.15713 37.5121 0.962615 37.3477 0.753134C37.1834 0.543653 37.0638 0.314221 37.0041 -1.28942e-07Z"
    fill="#A10550" />
  <path
    d="M40.2715 4.36923C39.898 4.87299 39.385 5.17723 38.7724 5.36676C39.6788 5.69595 40.6699 5.44158 41.0484 4.48894C41.168 4.18469 41.2327 3.87047 41.2825 3.55126C41.3622 3.0525 41.422 2.92781 41.7158 2.51882C41.3224 2.49388 40.9638 2.57368 40.6102 2.6485C39.8581 2.8081 39.3103 3.23704 38.9467 3.91536C38.7276 4.32933 38.4636 4.70341 37.9855 4.96276C38.6628 5.09244 39.2306 4.98271 39.7585 4.62859C39.9577 4.49393 40.1221 4.31437 40.3014 4.15477C40.3512 4.04005 40.4209 3.9403 40.5504 3.88543C40.4807 4.06499 40.4259 4.24454 40.2715 4.36923Z"
    fill="#A10550" />
  <path
    d="M40.2713 4.36848C40.4255 4.24398 40.4802 4.06469 40.5498 3.89038C40.4205 3.94018 40.3509 4.03979 40.3012 4.15931C40.2912 4.22904 40.2813 4.29876 40.2713 4.36848Z"
    fill="#A10550" />
  <path
    d="M34.4839 3.47626C34.3546 3.40156 34.2203 3.37168 34.0264 3.3667C34.1905 3.48124 34.3397 3.52607 34.4839 3.56591C34.4839 3.53105 34.4839 3.50615 34.4839 3.47626Z"
    fill="#A10550" />
  <path
    d="M44.38 12.4689C44.3949 12.449 44.4148 12.4241 44.4297 12.4042C44.3899 12.3793 44.3601 12.3893 44.3352 12.4291C44.3501 12.4391 44.365 12.454 44.38 12.4689Z"
    fill="#A10550" />
  <path d="M36.225 4.75317L36.2417 4.76989L36.225 4.75875L36.225 4.75317Z" fill="#A10550" />
  <path
    d="M33.926 3.33676C33.931 3.34189 33.941 3.34703 33.9459 3.34703C33.9509 3.34703 33.9608 3.34189 33.9658 3.33676C33.9509 3.33162 33.936 3.33676 33.926 3.33676Z"
    fill="#A10550" />
  <path
    d="M4.79366 27C5.76125 27 6.48013 27.0401 6.9503 27.1202C7.17516 27.1603 7.39321 27.2204 7.60445 27.3005C7.81568 27.3806 8.01329 27.4808 8.19727 27.601C8.57204 27.8414 8.88207 28.1686 9.12738 28.5826C9.37268 28.99 9.49534 29.4474 9.49534 29.9549C9.49534 30.2354 9.45445 30.5058 9.37268 30.7663C9.29092 31.0267 9.17508 31.2705 9.02517 31.4975C8.88207 31.7179 8.70491 31.9182 8.49368 32.0985C8.28244 32.2721 8.04736 32.4157 7.78842 32.5292C8.53115 32.7429 9.09672 33.0968 9.48512 33.591C9.88033 34.0851 10.0779 34.6761 10.0779 35.3639C10.0643 35.778 9.98594 36.182 9.84285 36.576C9.70657 36.9633 9.50556 37.3105 9.23981 37.6177C8.98088 37.9249 8.66403 38.1786 8.28925 38.379C7.9213 38.5793 7.49883 38.6928 7.02185 38.7195C6.81743 38.7396 6.46991 38.7563 5.9793 38.7696C5.49551 38.7763 4.86521 38.7863 4.08841 38.7997H0V27H4.79366ZM2.44283 31.6978H4.02709C4.51088 31.6978 4.89247 31.6945 5.17184 31.6878C5.45803 31.6811 5.65904 31.6678 5.77488 31.6477C6.20416 31.6077 6.53805 31.4741 6.77654 31.2471C7.01503 31.0134 7.13428 30.7028 7.13428 30.3155C7.13428 29.9549 7.02866 29.6578 6.81743 29.424C6.61301 29.1903 6.30978 29.0534 5.90775 29.0134C5.77829 28.9933 5.5432 28.9766 5.2025 28.9633C4.86862 28.9499 4.41208 28.9432 3.83289 28.9432H2.44283V31.6978ZM2.44283 36.8063H4.69145C5.12074 36.8063 5.47166 36.803 5.74422 36.7963C6.02359 36.783 6.22801 36.7596 6.35748 36.7262C6.71181 36.6661 7.00141 36.5159 7.22627 36.2755C7.45113 36.0284 7.56356 35.6978 7.56356 35.2838C7.56356 34.5359 7.21945 34.0451 6.53124 33.8114C6.3677 33.7579 6.10877 33.7179 5.75444 33.6912C5.40011 33.6644 4.94357 33.6511 4.38482 33.6511H2.44283V36.8063Z"
    fill="#A10550" />
  <path d="M12.1426 27H21.0655V28.9933H14.565V31.6077H20.6158V33.621H14.565V36.8063H21.2802V38.7997H12.1426V27Z"
    fill="#A10550" />
  <path
    d="M31.5625 38.7997L30.52 36.1052H25.6957L24.694 38.7997H22.1285L26.8302 27H29.3855L34.2098 38.7997H31.5625ZM28.0772 29.7446L26.452 34.1419H29.7432L28.0772 29.7446Z"
    fill="#A10550" />
  <path
    d="M37.8996 27V33.3907C37.8996 33.8915 37.9098 34.3088 37.9302 34.6427C37.9507 34.9699 37.9779 35.2104 38.012 35.3639C38.1074 35.8381 38.3493 36.2254 38.7377 36.5259C39.1329 36.8264 39.6678 36.9766 40.3424 36.9766C40.6899 36.9766 40.9931 36.9399 41.2521 36.8664C41.511 36.7863 41.7291 36.6828 41.9062 36.5559C42.0834 36.4224 42.2231 36.2688 42.3253 36.0952C42.4275 35.9215 42.4956 35.7379 42.5297 35.5442C42.5774 35.3306 42.6081 35.0601 42.6217 34.7329C42.6353 34.399 42.6421 33.9983 42.6421 33.5309V27H45.0747V33.1903C45.0747 33.9115 45.0611 34.5192 45.0339 35.0134C45.0066 35.5075 44.9555 35.9048 44.8805 36.2053C44.7579 36.7997 44.5092 37.2938 44.1344 37.6878C43.9709 37.8881 43.7733 38.0684 43.5416 38.2287C43.3167 38.389 43.051 38.5259 42.7443 38.6394C42.4445 38.7529 42.1004 38.8397 41.712 38.8998C41.3304 38.9666 40.9011 39 40.4242 39C39.845 39 39.3373 38.9666 38.9012 38.8998C38.472 38.8331 38.104 38.7396 37.7974 38.6194C37.4975 38.4858 37.2318 38.3356 37.0001 38.1686C36.7753 37.995 36.5708 37.8013 36.3869 37.5876C36.2165 37.3873 36.0768 37.177 35.9678 36.9566C35.8588 36.7295 35.777 36.5058 35.7225 36.2855C35.6407 35.9449 35.5794 35.5275 35.5385 35.0334C35.5044 34.5392 35.4874 33.9583 35.4874 33.2905V27H37.8996Z"
    fill="#A10550" />
  <path d="M50.3488 28.9933H46.7612V27H56.3383V28.9933H52.7712V38.7997H50.3488V28.9933Z" fill="#A10550" />
  <path
    d="M61.0809 33.8314L56.6756 27H59.5273L62.3585 31.6678L65.1284 27H67.9392L63.5033 33.8514V38.7997H61.0809V33.8314Z"
    fill="#A10550" />
  <path
    d="M77.3528 38.7997L76.3102 36.1052H71.4859L70.4842 38.7997H67.9187L72.6204 27H75.1757L80 38.7997H77.3528ZM73.8674 29.7446L72.2422 34.1419H75.5334L73.8674 29.7446Z"
    fill="#A10550" />
</svg>